<svg width="62" height="62" viewBox="0 0 62 62" fill="none" xmlns="http://www.w3.org/2000/svg">
<g clip-path="url(#clip0_996_72224)">
<path d="M62.8584 30.8022C62.861 36.9396 61.0429 42.94 57.634 48.0444C54.225 53.1488 49.3785 57.1279 43.7072 59.4784C38.036 61.8289 31.7949 62.4452 25.7732 61.2495C19.7515 60.0537 14.2198 57.0996 9.87775 52.7606C5.53568 48.4217 2.57828 42.893 1.37959 36.8736C0.180913 30.8543 0.794801 24.6147 3.14361 18.9442C5.49242 13.2737 9.47065 8.42689 14.5751 5.01682C19.6796 1.60676 25.681 -0.213376 31.8203 -0.213376C35.8957 -0.215108 39.9315 0.585855 43.6971 2.14376C47.4627 3.70166 50.8844 5.98597 53.7668 8.8662C56.6491 11.7464 58.9356 15.1661 60.4955 18.93C62.0555 22.6938 62.8584 26.728 62.8584 30.8022Z" fill="white"/>
<path d="M29.1297 24.249C29.4101 24.2645 29.6835 24.3424 29.93 24.477C30.1765 24.6116 30.3898 24.7995 30.5543 25.027L40.3947 39.8886L44.352 20.438H21.4658V24.249H29.1297Z" fill="url(#paint0_linear_996_72224)"/>
<path d="M57.5033 15.4531C59.7194 21.6378 58.8224 28.64 55.0366 33.229C53.238 35.311 51.0107 36.9798 48.5071 38.1214L46.8847 46.1654C46.8199 46.4171 46.676 46.6414 46.4742 46.8052C46.2723 46.969 46.0232 47.0637 45.7634 47.0753H37.717C37.4343 47.0617 37.1583 46.9848 36.9094 46.8501C36.6605 46.7154 36.4451 46.5264 36.2792 46.2972L26.452 31.462L25.7397 34.9829L23.4445 46.1654C23.3798 46.4171 23.2359 46.6414 23.034 46.8052C22.8322 46.969 22.583 47.0637 22.3233 47.0753H21.3735C21.3735 53.8665 30.4225 61.5808 45.46 57.3874C49.0995 55.5183 52.317 52.923 54.9137 49.7618C57.5104 46.6007 59.4312 42.9409 60.5574 39.0084C61.6836 35.076 61.9912 30.9545 61.4614 26.8985C60.9316 22.8425 59.5755 18.9382 57.4769 15.4268L57.5033 15.4531Z" fill="url(#paint1_linear_996_72224)"/>
<path d="M3.09033 35.2337C3.09033 24.0776 10.7542 20.438 18.827 20.438H21.5443V24.249H21.0959C20.8355 24.2585 20.5853 24.3524 20.3831 24.5165C20.1808 24.6807 20.0374 24.9061 19.9746 25.1589L19.7504 26.2666L15.7008 46.1656C15.6716 46.276 15.6688 46.3918 15.6928 46.5034C15.7168 46.6151 15.7668 46.7195 15.8388 46.8082C15.9108 46.8969 16.0028 46.9673 16.1071 47.0138C16.2115 47.0602 16.3254 47.0814 16.4395 47.0755H21.3992C21.3992 53.8667 30.4482 61.5811 45.4858 57.3876C41.2561 59.552 36.5715 60.6776 31.82 60.6712C14.6455 60.6712 3.09033 46.5612 3.09033 35.2337Z" fill="url(#paint2_linear_996_72224)"/>
<path d="M48.5065 38.1214C51.0338 36.988 53.2843 35.3186 55.1019 33.229C58.8613 28.5873 59.7847 21.6378 57.5686 15.4531C55.3553 11.759 52.3715 8.58521 48.8205 6.14801C45.2694 3.71081 41.2346 2.06748 36.9909 1.32998C31.1077 0.908001 25.5148 2.49043 22.4809 6.35418C21.1618 8.1476 20.9112 10.6135 21.5312 13.4092H44.8394C45.1212 13.4252 45.3956 13.5048 45.6423 13.6418C45.889 13.7788 46.1015 13.9697 46.264 14.2004L51.1447 21.8751C51.4385 22.3905 51.5501 22.9897 51.4612 23.5762L48.5065 38.1214Z" fill="url(#paint3_linear_996_72224)"/>
<path d="M36.9919 1.3302C31.1088 0.908225 25.5159 2.49065 22.482 6.35441C21.1629 8.14782 20.9123 10.6138 21.5322 13.4094H9.00092C7.68183 13.4094 7.81374 12.8555 8.89539 11.5764C11.7003 8.22436 15.2074 5.5291 19.1689 3.68111C23.1304 1.83313 27.4495 0.877528 31.8211 0.881851C33.5544 0.883369 35.2843 1.03337 36.9919 1.3302V1.3302Z" fill="url(#paint4_linear_996_72224)"/>
<path style="mix-blend-mode:multiply" d="M15.7011 46.1656L19.7507 26.2666H16.7696C16.5047 26.2791 16.2509 26.3771 16.0464 26.5459C15.8419 26.7147 15.6976 26.9452 15.6352 27.2029L11.6647 46.1656C11.6361 46.2784 11.634 46.3964 11.6587 46.5101C11.6835 46.6239 11.7343 46.7304 11.8072 46.8211C11.8801 46.9119 11.9731 46.9845 12.0788 47.0332C12.1846 47.082 12.3002 47.1054 12.4166 47.1019H16.3739C16.2624 47.0986 16.1531 47.0697 16.0546 47.0173C15.9561 46.965 15.871 46.8906 15.8059 46.8C15.7408 46.7095 15.6975 46.6051 15.6793 46.4951C15.6612 46.385 15.6686 46.2723 15.7011 46.1656V46.1656Z" fill="url(#paint5_linear_996_72224)"/>
<path style="mix-blend-mode:multiply" d="M34.5903 47.0752H37.7166C37.4339 47.0616 37.1578 46.9847 36.909 46.85C36.6601 46.7153 36.4447 46.5264 36.2788 46.2972L26.4516 31.4619L25.7393 34.9828L32.9547 46.1653C33.1437 46.4277 33.3883 46.6453 33.671 46.8026C33.9537 46.9598 34.2676 47.0529 34.5903 47.0752V47.0752Z" fill="url(#paint6_linear_996_72224)"/>
<path style="mix-blend-mode:multiply" d="M3.09033 35.2337C3.09033 24.0776 10.7542 20.438 18.827 20.438H44.2986L40.3413 39.8886L30.5537 25.0666C30.3892 24.8391 30.1759 24.6511 29.9294 24.5165C29.6829 24.3819 29.4095 24.304 29.1291 24.2886H21.0959C20.8355 24.298 20.5853 24.3919 20.3831 24.5561C20.1808 24.7202 20.0374 24.9457 19.9746 25.1984L19.7504 26.3061L15.7008 46.1656C15.6716 46.276 15.6688 46.3918 15.6928 46.5034C15.7168 46.6151 15.7668 46.7195 15.8388 46.8082C15.9108 46.8969 16.0028 46.9673 16.1071 47.0138C16.2115 47.0602 16.3254 47.0814 16.4395 47.0755H22.349C22.6041 47.0584 22.8473 46.9613 23.0439 46.7979C23.2405 46.6345 23.3805 46.4132 23.4438 46.1656L25.7127 34.9567L26.425 31.4358L36.2785 46.2974C36.4445 46.5267 36.6598 46.7156 36.9087 46.8503C37.1576 46.985 37.4337 47.0619 37.7163 47.0755H45.7628C46.0225 47.0639 46.2716 46.9692 46.4735 46.8054C46.6754 46.6416 46.8193 46.4173 46.884 46.1656L48.5065 38.1216L51.4744 23.616C51.5685 23.0151 51.452 22.4002 51.1446 21.8754L46.2244 14.227C46.0619 13.9963 45.8494 13.8054 45.6027 13.6684C45.356 13.5313 45.0816 13.4518 44.7998 13.4358H8.99984C7.68075 13.4358 7.81266 12.8819 8.89431 11.6028C11.6992 8.25073 15.2063 5.55546 19.1678 3.70748C23.1293 1.85949 27.4485 0.903895 31.82 0.908218C33.5533 0.909736 35.2832 1.05974 36.9908 1.35657C44.3622 2.64742 50.9816 6.65443 55.5418 12.5864C60.102 18.5184 62.2715 25.9441 61.6221 33.3972C60.9726 40.8504 57.5514 47.7892 52.0339 52.8435C46.5163 57.8979 39.3037 60.7003 31.82 60.6975C14.6455 60.6711 3.09033 46.5612 3.09033 35.2337Z" fill="url(#paint7_radial_996_72224)"/>
<path d="M113.551 19.9498C113.551 16.4553 115.662 13.752 119.184 13.752C122.706 13.752 124.829 16.3893 124.829 19.9498C124.829 23.5102 122.561 26.174 119.157 26.174C115.754 26.174 113.551 23.6026 113.551 19.9498ZM122.099 19.9498C122.099 17.6025 120.938 15.9937 119.184 15.9937C117.429 15.9937 116.295 17.6421 116.282 19.9498C116.269 22.2575 117.245 23.9059 119.223 23.9059C120.965 23.919 122.099 22.2839 122.099 19.9498Z" fill="#414141"/>
<path d="M74.7829 25.8839C74.6954 25.8839 74.6116 25.8492 74.5497 25.7873C74.4879 25.7255 74.4531 25.6417 74.4531 25.5542V14.3849C74.4531 14.2962 74.4874 14.211 74.5489 14.147C74.6104 14.0831 74.6942 14.0455 74.7829 14.0421H76.4713C76.5608 14.0503 76.6448 14.0887 76.7096 14.151C76.7743 14.2134 76.8159 14.2958 76.8275 14.3849L76.933 15.5717C77.3583 15.0307 77.8956 14.5879 78.508 14.2738C79.1205 13.9597 79.7936 13.7817 80.4813 13.752C82.7238 13.752 84.4386 15.0706 84.4386 18.3278V25.5542C84.4386 25.5986 84.4297 25.6426 84.4123 25.6835C84.3949 25.7244 84.3694 25.7613 84.3374 25.7921C84.3054 25.8229 84.2674 25.8469 84.2259 25.8627C84.1843 25.8785 84.14 25.8857 84.0956 25.8839H82.183C82.0942 25.884 82.009 25.8496 81.945 25.7882C81.881 25.7267 81.8434 25.6428 81.84 25.5542V18.7102C81.84 16.7718 80.8243 16.1915 79.7427 16.1915C78.4236 16.1915 77.1045 17.3915 77.1045 19.6333V25.5542C77.1011 25.6428 77.0634 25.7267 76.9995 25.7882C76.9355 25.8496 76.8502 25.884 76.7615 25.8839H74.7829Z" fill="#414141"/>
<path d="M74.7832 47.6026C74.7387 47.6027 74.6947 47.5937 74.6538 47.5763C74.6129 47.559 74.576 47.5335 74.5452 47.5015C74.5144 47.4694 74.4904 47.4315 74.4746 47.39C74.4588 47.3485 74.4516 47.3042 74.4534 47.2598V36.1037C74.4533 36.015 74.4876 35.9297 74.5491 35.8658C74.6106 35.8018 74.6945 35.7642 74.7832 35.7608H76.4716C76.5611 35.769 76.6451 35.8075 76.7098 35.8698C76.7746 35.9321 76.8161 36.0146 76.8277 36.1037L76.9333 37.2905C77.3586 36.7494 77.8958 36.3067 78.5083 35.9926C79.1208 35.6784 79.7939 35.5004 80.4816 35.4707C82.7241 35.4707 84.4389 36.7894 84.4389 40.0466V47.2598C84.4407 47.3053 84.4331 47.3507 84.4166 47.3932C84.4 47.4356 84.3748 47.4741 84.3426 47.5064C84.3103 47.5386 84.2718 47.5638 84.2293 47.5803C84.1869 47.5969 84.1414 47.6045 84.0959 47.6026H82.1832C82.0923 47.6026 82.005 47.5665 81.9407 47.5022C81.8764 47.4379 81.8403 47.3507 81.8403 47.2598V40.429C81.8403 38.4905 80.8246 37.9103 79.7429 37.9103C78.4238 37.9103 77.1048 39.0971 77.1048 41.3521V47.2598C77.1048 47.3507 77.0686 47.4379 77.0043 47.5022C76.94 47.5665 76.8527 47.6026 76.7618 47.6026H74.7832Z" fill="#414141"/>
<path d="M127.441 25.8839C127.354 25.8839 127.27 25.8492 127.208 25.7873C127.146 25.7255 127.111 25.6417 127.111 25.5542V14.3849C127.111 14.2962 127.146 14.211 127.207 14.147C127.269 14.0831 127.352 14.0455 127.441 14.0421H129.13C129.219 14.0503 129.303 14.0887 129.368 14.151C129.432 14.2134 129.474 14.2958 129.486 14.3849L129.591 15.5717C130.017 15.0307 130.554 14.5879 131.166 14.2738C131.779 13.9597 132.452 13.7817 133.14 13.752C135.382 13.752 137.097 15.0706 137.097 18.3278V25.5542C137.093 25.6428 137.056 25.7267 136.992 25.7882C136.928 25.8496 136.843 25.884 136.754 25.8839H134.788C134.744 25.8857 134.7 25.8785 134.658 25.8627C134.617 25.8469 134.579 25.8229 134.547 25.7921C134.515 25.7613 134.489 25.7244 134.472 25.6835C134.454 25.6426 134.445 25.5986 134.445 25.5542V18.7102C134.445 16.7718 133.43 16.1915 132.348 16.1915C131.029 16.1915 129.71 17.3915 129.71 19.6333V25.5542C129.707 25.6428 129.669 25.7267 129.605 25.7882C129.541 25.8496 129.456 25.884 129.367 25.8839H127.441Z" fill="#414141"/>
<path d="M92.1954 16.0069C93.3957 16.0069 94.6884 16.9168 94.6884 19.5278V20.0817C94.6884 23.1674 93.2375 23.919 92.2349 23.919C90.441 23.919 89.4517 22.0201 89.4517 19.963C89.3989 17.563 90.5861 16.0069 92.1954 16.0069ZM91.6809 13.752C89.1219 13.752 86.7607 15.8355 86.7607 19.9498C86.7607 23.3652 88.5943 26.174 91.7205 26.174C92.3599 26.1584 92.9853 25.9838 93.5403 25.6661C94.0953 25.3484 94.5624 24.8975 94.8995 24.3542L95.071 25.5542C95.0873 25.64 95.1307 25.7183 95.1948 25.7776C95.2589 25.8369 95.3403 25.8742 95.4271 25.8839H97.076C97.1647 25.884 97.25 25.8496 97.314 25.7882C97.3779 25.7267 97.4155 25.6428 97.4189 25.5542V14.3849C97.4189 14.294 97.3828 14.2068 97.3185 14.1425C97.2542 14.0782 97.1669 14.0421 97.076 14.0421H95.5063C95.4168 14.0503 95.3328 14.0887 95.268 14.151C95.2033 14.2134 95.1617 14.2958 95.1501 14.3849L95.005 15.4399C94.6229 14.9168 94.1228 14.4913 93.5451 14.198C92.9675 13.9047 92.3288 13.7519 91.6809 13.752Z" fill="#414141"/>
<path d="M144.906 37.7257C146.119 37.7257 147.412 38.6224 147.412 41.2466V41.8004C147.412 44.8861 145.948 45.6378 144.945 45.6378C143.165 45.6378 142.175 43.7389 142.175 41.6817C142.162 39.2817 143.297 37.7257 144.906 37.7257ZM144.405 35.4707C141.846 35.4707 139.418 37.5279 139.418 41.6554C139.418 45.0839 141.252 47.8927 144.391 47.8927C145.029 47.8773 145.653 47.7027 146.206 47.3849C146.758 47.0671 147.223 46.6161 147.557 46.073L147.729 47.2598C147.742 47.348 147.785 47.4292 147.849 47.4911C147.913 47.553 147.996 47.5922 148.085 47.6026H149.747C149.791 47.6027 149.835 47.5937 149.876 47.5763C149.917 47.559 149.954 47.5335 149.985 47.5015C150.016 47.4694 150.04 47.4315 150.055 47.39C150.071 47.3485 150.078 47.3042 150.077 47.2598V36.1037C150.077 36.015 150.042 35.9297 149.981 35.8658C149.919 35.8018 149.836 35.7642 149.747 35.7608H148.217C148.128 35.7713 148.045 35.8104 147.981 35.8723C147.917 35.9342 147.874 36.0155 147.861 36.1037L147.716 37.1586C147.335 36.6374 146.837 36.213 146.262 35.9198C145.686 35.6265 145.05 35.4727 144.405 35.4707V35.4707Z" fill="#414141"/>
<path d="M144.8 16.0069C146.014 16.0069 147.307 16.9168 147.307 19.5278V20.0817C147.307 23.1674 145.856 23.919 144.853 23.919C143.059 23.919 142.07 22.0201 142.07 19.963C142.162 17.563 143.257 16.0069 144.8 16.0069ZM144.299 13.752C141.74 13.752 139.326 15.8091 139.326 19.9498C139.326 23.3652 141.16 26.174 144.286 26.174C144.924 26.1597 145.548 25.9857 146.101 25.6677C146.654 25.3498 147.119 24.8981 147.452 24.3542L147.636 25.5542C147.651 25.6409 147.694 25.7204 147.758 25.78C147.822 25.8397 147.905 25.8763 147.993 25.8839H149.641C149.73 25.884 149.815 25.8496 149.879 25.7882C149.943 25.7267 149.981 25.6428 149.984 25.5542V14.3849C149.984 14.294 149.948 14.2068 149.884 14.1425C149.82 14.0782 149.732 14.0421 149.641 14.0421H148.111C148.023 14.0525 147.94 14.0917 147.876 14.1536C147.811 14.2155 147.769 14.2967 147.755 14.3849L147.623 15.4399C147.246 14.924 146.755 14.5028 146.187 14.2099C145.619 13.9169 144.991 13.7601 144.352 13.752H144.299Z" fill="#414141"/>
<path d="M110.873 14.0418C110.919 14.0399 110.964 14.0475 111.007 14.0641C111.049 14.0807 111.088 14.1058 111.12 14.1381C111.152 14.1703 111.177 14.2088 111.194 14.2513C111.211 14.2937 111.218 14.3391 111.216 14.3846V25.5539C111.213 25.6426 111.175 25.7264 111.111 25.7879C111.047 25.8494 110.962 25.8837 110.873 25.8836H108.895C108.807 25.8836 108.723 25.8489 108.662 25.787C108.6 25.7252 108.565 25.6414 108.565 25.5539V14.5824C108.568 14.4926 108.605 14.4072 108.669 14.3436C108.733 14.28 108.818 14.2429 108.908 14.2396L110.873 14.0418Z" fill="#414141"/>
<path d="M155.208 9.12354C155.406 9.12354 155.551 9.26859 155.551 9.46639V25.5544C155.551 25.5988 155.542 25.6428 155.524 25.6837C155.507 25.7246 155.482 25.7615 155.45 25.7923C155.418 25.8231 155.38 25.8471 155.338 25.8629C155.297 25.8786 155.252 25.8858 155.208 25.8841H153.242C153.154 25.8841 153.068 25.8498 153.004 25.7883C152.94 25.7269 152.903 25.643 152.899 25.5544V9.65101C152.903 9.56112 152.94 9.4758 153.003 9.4122C153.067 9.3486 153.152 9.31142 153.242 9.30815L155.208 9.12354Z" fill="#414141"/>
<path d="M111.454 10.956C111.454 11.2664 111.362 11.5698 111.189 11.8278C111.017 12.0859 110.772 12.287 110.485 12.4058C110.198 12.5246 109.882 12.5556 109.578 12.4951C109.273 12.4346 108.994 12.2851 108.774 12.0656C108.555 11.8462 108.405 11.5666 108.345 11.2622C108.284 10.9578 108.315 10.6422 108.434 10.3555C108.553 10.0688 108.754 9.82367 109.012 9.65124C109.27 9.47881 109.574 9.38678 109.884 9.38678C110.091 9.38502 110.296 9.42441 110.487 9.50265C110.678 9.58088 110.852 9.69641 110.998 9.84248C111.144 9.98855 111.26 10.1622 111.338 10.3534C111.416 10.5446 111.456 10.7494 111.454 10.956V10.956Z" fill="#414141"/>
<path d="M105.848 23.9582C105.848 23.7077 105.637 23.6417 105.346 23.7472C104.97 23.8661 104.58 23.9369 104.186 23.9582C103.407 23.9582 103.064 23.6813 103.051 22.6395V16.1779H105.544C105.589 16.178 105.633 16.169 105.674 16.1517C105.714 16.1343 105.751 16.1088 105.782 16.0768C105.813 16.0448 105.837 16.0068 105.853 15.9653C105.869 15.9238 105.876 15.8795 105.874 15.8351V14.3845C105.874 14.2958 105.84 14.2106 105.778 14.1466C105.717 14.0827 105.633 14.0451 105.544 14.0417H103.051V10.8768C103.053 10.8313 103.045 10.7859 103.029 10.7434C103.012 10.701 102.987 10.6625 102.955 10.6303C102.923 10.598 102.884 10.5728 102.842 10.5563C102.799 10.5397 102.754 10.5321 102.708 10.534L100.743 10.7318C100.654 10.7379 100.57 10.776 100.507 10.839C100.444 10.902 100.406 10.9857 100.4 11.0746V22.8637C100.336 23.3051 100.375 23.7551 100.513 24.1792C100.651 24.6032 100.884 24.99 101.195 25.3098C101.506 25.6295 101.886 25.8736 102.306 26.0234C102.726 26.1732 103.175 26.2245 103.618 26.1736C104.391 26.1862 105.158 26.0427 105.874 25.7516C105.993 25.6857 106.085 25.6329 106.072 25.4351L105.848 23.9582Z" fill="#414141"/>
<path d="M160.629 18.9739C160.814 17.6553 161.46 15.9542 163.268 15.9542C165.075 15.9542 165.8 17.4706 165.906 18.9739H160.629ZM163.492 26.174C164.926 26.1933 166.342 25.8484 167.607 25.1718C167.687 25.1319 167.75 25.0646 167.784 24.9822C167.818 24.8998 167.821 24.8079 167.792 24.7234L167.225 23.4047C167.209 23.3636 167.185 23.3262 167.154 23.2949C167.123 23.2636 167.086 23.2391 167.045 23.223C167.004 23.2068 166.96 23.1994 166.916 23.2012C166.872 23.203 166.829 23.2139 166.79 23.2333C165.813 23.713 164.738 23.9611 163.65 23.9586C163.252 23.9657 162.857 23.8929 162.487 23.7446C162.117 23.5964 161.781 23.3756 161.499 23.0953C161.216 22.8151 160.992 22.481 160.84 22.1129C160.689 21.7448 160.613 21.35 160.616 20.952H168.28C168.371 20.952 168.458 20.9159 168.523 20.8516C168.587 20.7873 168.623 20.7001 168.623 20.6091V19.9234C168.623 17.0091 167.133 13.7915 163.347 13.7915C159.904 13.7915 157.846 16.4289 157.846 20.0685C157.846 23.708 160.089 26.174 163.531 26.174H163.492Z" fill="#414141"/>
<path d="M192.09 47.6026C191.999 47.6026 191.911 47.5665 191.847 47.5022C191.783 47.4379 191.747 47.3507 191.747 47.2598V36.1037C191.747 36.0127 191.783 35.9255 191.847 35.8612C191.911 35.7969 191.999 35.7608 192.09 35.7608H193.778C193.866 35.7695 193.948 35.8085 194.011 35.871C194.073 35.9335 194.112 36.0157 194.121 36.1037L194.24 37.2905C194.663 36.7504 195.198 36.3082 195.808 35.9941C196.418 35.68 197.089 35.5014 197.775 35.4707C200.03 35.4707 201.798 36.7894 201.798 40.0466V47.2598C201.798 47.3507 201.762 47.4379 201.698 47.5022C201.633 47.5665 201.546 47.6026 201.455 47.6026H199.476C199.432 47.6027 199.388 47.5937 199.347 47.5763C199.306 47.559 199.269 47.5335 199.238 47.5015C199.208 47.4694 199.184 47.4315 199.168 47.39C199.152 47.3485 199.145 47.3042 199.147 47.2598V40.429C199.147 38.4905 198.131 37.9103 197.049 37.9103C195.73 37.9103 194.411 39.0971 194.411 41.3521V47.2598C194.413 47.3042 194.406 47.3485 194.39 47.39C194.374 47.4315 194.35 47.4694 194.319 47.5015C194.289 47.5335 194.252 47.559 194.211 47.5763C194.17 47.5937 194.126 47.6027 194.081 47.6026H192.09Z" fill="#414141"/>
<path d="M153.454 47.6026C153.409 47.6027 153.365 47.5937 153.324 47.5763C153.283 47.559 153.246 47.5335 153.216 47.5015C153.185 47.4694 153.161 47.4315 153.145 47.39C153.129 47.3485 153.122 47.3042 153.124 47.2598V36.1037C153.124 36.015 153.158 35.9297 153.22 35.8658C153.281 35.8018 153.365 35.7642 153.454 35.7608H155.142C155.231 35.7713 155.313 35.8104 155.378 35.8723C155.442 35.9342 155.484 36.0155 155.498 36.1037L155.604 37.2905C156.029 36.7494 156.566 36.3067 157.179 35.9926C157.791 35.6784 158.464 35.5004 159.152 35.4707C161.395 35.4707 163.109 36.7894 163.109 40.0466V47.2598C163.111 47.3053 163.104 47.3507 163.087 47.3932C163.07 47.4356 163.045 47.4741 163.013 47.5064C162.981 47.5386 162.942 47.5638 162.9 47.5803C162.857 47.5969 162.812 47.6045 162.766 47.6026H160.801C160.71 47.6026 160.623 47.5665 160.558 47.5022C160.494 47.4379 160.458 47.3507 160.458 47.2598V40.429C160.458 38.4905 159.442 37.9103 158.361 37.9103C157.041 37.9103 155.722 39.0971 155.722 41.3521V47.2598C155.722 47.3507 155.686 47.4379 155.622 47.5022C155.558 47.5665 155.47 47.6026 155.379 47.6026H153.454Z" fill="#414141"/>
<path d="M136.885 30.8423C137.057 30.8423 137.215 30.9873 137.215 31.172V47.26C137.215 47.3487 137.181 47.4339 137.119 47.4978C137.058 47.5618 136.974 47.5994 136.885 47.6028H134.907C134.861 47.6047 134.816 47.5971 134.773 47.5805C134.731 47.5639 134.692 47.5387 134.66 47.5065C134.628 47.4743 134.603 47.4358 134.586 47.3933C134.569 47.3509 134.562 47.3055 134.564 47.26V31.4357C134.567 31.3458 134.604 31.2605 134.668 31.1969C134.731 31.1333 134.817 31.0961 134.907 31.0928L136.885 30.8423Z" fill="#414141"/>
<path d="M89.5704 40.6927C89.755 39.374 90.4014 37.6729 92.2085 37.6729C94.0157 37.6729 94.7544 39.1762 94.8467 40.6927H89.5704ZM92.446 47.8927C93.8763 47.9121 95.2881 47.5672 96.5483 46.8905C96.5899 46.8732 96.6277 46.8479 96.6595 46.816C96.6912 46.7841 96.7164 46.7462 96.7336 46.7046C96.7507 46.663 96.7595 46.6184 96.7594 46.5733C96.7593 46.5283 96.7503 46.4837 96.733 46.4422L96.179 45.1235C96.1416 45.0419 96.0736 44.9783 95.9898 44.9462C95.9059 44.9142 95.8128 44.9163 95.7305 44.9521C94.752 45.4269 93.6788 45.6748 92.5911 45.6773C92.1936 45.6844 91.7987 45.6116 91.4298 45.4632C91.061 45.3148 90.7257 45.0938 90.444 44.8134C90.1622 44.5329 89.9397 44.1988 89.7897 43.8307C89.6396 43.4626 89.565 43.0682 89.5704 42.6707H97.2211C97.2666 42.6726 97.312 42.665 97.3545 42.6484C97.3969 42.6319 97.4355 42.6067 97.4677 42.5745C97.4999 42.5422 97.5251 42.5037 97.5417 42.4613C97.5583 42.4188 97.5659 42.3734 97.564 42.3279C97.564 42.051 97.564 41.8927 97.564 41.6422C97.564 38.7279 96.0867 35.5103 92.2877 35.5103C88.8449 35.5103 86.8003 38.1476 86.8003 41.7872C86.8003 45.4268 89.0032 47.8927 92.446 47.8927Z" fill="#414141"/>
<path d="M115.596 40.6927C115.794 39.374 116.44 37.6729 118.234 37.6729C120.028 37.6729 120.767 39.1762 120.872 40.6927H115.596ZM118.419 47.8927C119.853 47.912 121.269 47.5672 122.534 46.8905C122.614 46.8506 122.675 46.7825 122.707 46.6996C122.739 46.6166 122.738 46.5248 122.706 46.4422L122.152 45.1235C122.134 45.0836 122.11 45.0474 122.078 45.0172C122.047 44.9869 122.01 44.9632 121.97 44.9472C121.929 44.9313 121.886 44.9235 121.843 44.9244C121.799 44.9252 121.756 44.9346 121.716 44.9521C120.733 45.4254 119.656 45.6732 118.564 45.6773C118.167 45.6826 117.773 45.6086 117.405 45.4595C117.037 45.3104 116.702 45.0894 116.421 44.8093C116.139 44.5292 115.917 44.1958 115.766 43.8286C115.615 43.4613 115.539 43.0677 115.543 42.6707H123.207C123.251 42.6708 123.295 42.6618 123.336 42.6444C123.377 42.627 123.414 42.6016 123.445 42.5696C123.476 42.5375 123.5 42.4996 123.515 42.4581C123.531 42.4166 123.538 42.3723 123.537 42.3279C123.537 42.0509 123.537 41.8927 123.537 41.6422C123.537 38.7279 122.059 35.5103 118.26 35.5103C114.818 35.5103 112.773 38.1476 112.773 41.7872C112.773 45.4268 115.029 47.8927 118.419 47.8927Z" fill="#414141"/>
<path d="M110.017 30.8418L108.051 31.0264C107.96 31.0295 107.873 31.0662 107.807 31.1295C107.741 31.1928 107.701 31.2782 107.695 31.3693V36.8023C106.829 35.9525 105.663 35.4785 104.45 35.4836C101.891 35.4836 99.4771 37.5408 99.4771 41.6683C99.4771 45.0968 101.311 47.9057 104.437 47.9057C105.113 47.8931 105.776 47.7204 106.372 47.4017C106.968 47.0831 107.481 46.6276 107.866 46.0727L108.051 47.2595C108.063 47.3486 108.104 47.4311 108.169 47.4934C108.234 47.5557 108.318 47.5941 108.407 47.6024H110.03C110.074 47.6024 110.118 47.5934 110.159 47.5761C110.2 47.5587 110.237 47.5332 110.268 47.5012C110.299 47.4692 110.323 47.4312 110.338 47.3897C110.354 47.3482 110.361 47.3039 110.36 47.2595V31.1715C110.346 30.9869 110.201 30.8023 110.017 30.8418ZM107.708 41.8001C107.708 44.8859 105.993 45.6375 105.07 45.6375C103.263 45.6375 102.287 43.7386 102.287 41.6814C102.287 39.321 103.421 37.7254 105.017 37.7254C106.231 37.7254 107.774 38.6221 107.774 41.2463L107.708 41.8001Z" fill="#414141"/>
<path d="M181.458 40.6927C181.656 39.374 182.289 37.6729 184.096 37.6729C185.903 37.6729 186.629 39.1762 186.734 40.6927H181.458ZM184.373 47.8927C185.808 47.9103 187.223 47.5656 188.489 46.8905C188.568 46.8506 188.63 46.7825 188.661 46.6996C188.693 46.6166 188.693 46.5248 188.66 46.4422L188.106 45.1235C188.089 45.0819 188.064 45.0443 188.032 45.0129C187.999 44.9815 187.961 44.957 187.919 44.941C187.877 44.9249 187.832 44.9176 187.787 44.9195C187.742 44.9214 187.698 44.9325 187.658 44.9521C186.68 45.4282 185.606 45.6762 184.518 45.6773C184.121 45.6826 183.727 45.6086 183.359 45.4595C182.991 45.3105 182.657 45.0894 182.375 44.8093C182.094 44.5293 181.871 44.1958 181.721 43.8286C181.57 43.4613 181.494 43.0677 181.498 42.6707H189.162C189.206 42.6708 189.25 42.6618 189.291 42.6444C189.332 42.6271 189.369 42.6016 189.4 42.5696C189.43 42.5375 189.454 42.4996 189.47 42.4581C189.486 42.4166 189.493 42.3723 189.491 42.3279C189.491 42.051 189.491 41.8927 189.491 41.6422C189.491 38.7279 188.014 35.5103 184.215 35.5103C180.772 35.5103 178.728 38.1476 178.728 41.7872C178.728 45.4268 180.891 47.8927 184.373 47.8927Z" fill="#414141"/>
<path d="M176.01 30.8418L174.044 31.0264C173.954 31.0297 173.869 31.0669 173.805 31.1305C173.742 31.1941 173.705 31.2794 173.701 31.3693V36.8023C172.833 35.9561 171.669 35.4828 170.456 35.4836C167.884 35.4836 165.47 37.5408 165.47 41.6683C165.47 45.0968 167.304 47.9057 170.43 47.9057C171.104 47.8925 171.766 47.7209 172.362 47.4048C172.958 47.0886 173.471 46.6368 173.86 46.0859L174.031 47.2727C174.045 47.3609 174.087 47.4421 174.151 47.504C174.216 47.5659 174.299 47.6051 174.387 47.6155H176.01C176.101 47.6155 176.188 47.5794 176.252 47.5151C176.317 47.4508 176.353 47.3636 176.353 47.2727V31.1715C176.353 30.9869 176.194 30.8023 176.01 30.8418ZM173.715 41.8001C173.715 44.8859 172 45.6375 170.997 45.6375C169.19 45.6375 168.214 43.7386 168.214 41.6814C168.214 39.321 169.348 37.7254 170.958 37.7254C172.171 37.7254 173.715 38.6221 173.715 41.2463V41.8001Z" fill="#414141"/>
<path d="M132.374 35.8136C132.374 35.7249 132.34 35.6396 132.279 35.5757C132.217 35.5117 132.133 35.4741 132.045 35.4707C131.344 35.4993 130.657 35.6763 130.029 35.99C129.401 36.3037 128.848 36.747 128.404 37.2905L128.298 36.1037C128.287 36.0166 128.248 35.9356 128.186 35.8736C128.124 35.8115 128.043 35.7718 127.955 35.7608H126.333C126.242 35.7608 126.155 35.7969 126.09 35.8612C126.026 35.9255 125.99 36.0127 125.99 36.1037V47.2598C125.988 47.3053 125.996 47.3507 126.012 47.3932C126.029 47.4356 126.054 47.4741 126.086 47.5064C126.119 47.5386 126.157 47.5638 126.2 47.5803C126.242 47.5969 126.287 47.6045 126.333 47.6026H128.298C128.389 47.6026 128.477 47.5665 128.541 47.5022C128.605 47.4379 128.641 47.3507 128.641 47.2598V41.4839C128.641 39.0971 130.106 38.1608 131.451 38.1608C131.627 38.151 131.803 38.151 131.979 38.1608C132.256 38.1608 132.44 38.0553 132.44 37.8443L132.374 35.8136Z" fill="#414141"/>
</g>
<defs>
<linearGradient id="paint0_linear_996_72224" x1="45.8689" y1="24.7369" x2="24.4748" y2="32.5213" gradientUnits="userSpaceOnUse">
<stop offset="0.34" stop-color="#F7AC00"/>
<stop offset="0.85" stop-color="#F08800"/>
</linearGradient>
<linearGradient id="paint1_linear_996_72224" x1="41.5687" y1="58.6006" x2="41.5687" y2="15.4531" gradientUnits="userSpaceOnUse">
<stop offset="0.01" stop-color="#EE7D00"/>
<stop offset="0.25" stop-color="#F29200"/>
<stop offset="0.78" stop-color="#F29200"/>
<stop offset="0.99" stop-color="#F49D00"/>
</linearGradient>
<linearGradient id="paint2_linear_996_72224" x1="11.638" y1="53.1678" x2="33.5689" y2="34.7656" gradientUnits="userSpaceOnUse">
<stop offset="0.21" stop-color="#E9600F"/>
<stop offset="0.54" stop-color="#EB6B0A"/>
<stop offset="0.82" stop-color="#F08800"/>
</linearGradient>
<linearGradient id="paint3_linear_996_72224" x1="33.6404" y1="26.2796" x2="49.3449" y2="6.53418" gradientUnits="userSpaceOnUse">
<stop offset="0.52" stop-color="#F7AB00"/>
<stop offset="0.86" stop-color="#FECA00"/>
</linearGradient>
<linearGradient id="paint4_linear_996_72224" x1="1116.32" y1="404.018" x2="1116.32" y2="285.007" gradientUnits="userSpaceOnUse">
<stop offset="0.01" stop-color="#EE7D00"/>
<stop offset="0.25" stop-color="#F29200"/>
<stop offset="0.78" stop-color="#F29200"/>
<stop offset="0.99" stop-color="#F49D00"/>
</linearGradient>
<linearGradient id="paint5_linear_996_72224" x1="15.7011" y1="47.1019" x2="15.7011" y2="26.2666" gradientUnits="userSpaceOnUse">
<stop offset="0.31" stop-color="white"/>
<stop offset="0.63" stop-color="#F2A8C7"/>
</linearGradient>
<linearGradient id="paint6_linear_996_72224" x1="31.7279" y1="47.0752" x2="31.7279" y2="31.4619" gradientUnits="userSpaceOnUse">
<stop stop-color="white"/>
<stop offset="0.29" stop-color="#F7C7DC"/>
</linearGradient>
<radialGradient id="paint7_radial_996_72224" cx="0" cy="0" r="1" gradientUnits="userSpaceOnUse" gradientTransform="translate(34.1284 28.6402) scale(31.2623 31.2529)">
<stop offset="0.83" stop-color="white"/>
<stop offset="0.95" stop-color="#F7CADD"/>
</radialGradient>
<clipPath id="clip0_996_72224">
<rect width="202" height="62" fill="white"/>
</clipPath>
</defs>
</svg>
